<svg width="40" height="53" viewBox="0 0 40 53" fill="none" xmlns="http://www.w3.org/2000/svg">
<g filter="url(#filter0_f_1_201)">
<path fill-rule="evenodd" clip-rule="evenodd" d="M23.5168 41.3681C31.9942 37.5953 38.3623 28.4121 38.3623 19.1727C38.3623 8.58405 29.9984 1.93116 19.6811 4.3131C9.36382 6.69504 1 17.2098 1 27.7985C1 36.9242 7.21231 43.1265 15.5334 43.1415L19.0562 46.6128C19.3163 46.8691 19.7912 46.7595 20.0513 46.3831L23.5168 41.3681ZM36.1545 19.5517C36.1545 28.9612 28.7221 38.3051 19.5538 40.4217C10.3854 42.5384 2.95303 36.6264 2.95303 27.2169C2.95303 17.8074 10.3854 8.46358 19.5538 6.3469C28.7221 4.23022 36.1545 10.1422 36.1545 19.5517Z" fill="url(#paint0_linear_1_201)"/>
<path fill-rule="evenodd" clip-rule="evenodd" d="M27.1565 14.0909C27.9084 13.9173 28.52 14.4279 28.52 15.2293V17.1668C28.52 17.4344 28.3166 17.6982 28.0655 17.7561L25.793 18.2808V15.8588C25.793 15.0575 26.4046 14.2645 27.1565 14.0909ZM21.2482 27.9451V26.1114L13.0674 28.0001V20.2499C13.0674 18.6472 14.2905 17.0613 15.7943 16.7141L25.3502 14.5079C25.0619 14.9805 24.8841 15.5213 24.8841 16.0687V27.2095C24.8841 28.3862 23.8998 29.5453 22.7607 29.6106C21.8668 29.662 21.2482 28.9105 21.2482 27.9451ZM20.3392 27.29V28.2588C20.3392 29.8612 21.5623 30.8827 23.0661 30.5355L13.5219 32.739C11.7647 33.1446 10.3405 31.9555 10.3405 30.0828C10.3405 29.8151 10.5438 29.5514 10.7949 29.4935L20.3392 27.29ZM14.8153 21.0616C14.8153 20.6878 15.1106 20.3165 15.4749 20.2324L22.0871 18.7059C22.3961 18.6345 22.6465 18.8337 22.6465 19.1508C22.6465 19.4679 22.3961 19.7827 22.0871 19.854L14.8153 21.5329V21.0616ZM15.4749 23.1026C15.1106 23.1867 14.8153 23.558 14.8153 23.9318V24.4031L22.0871 22.7242C22.3961 22.6529 22.6465 22.3381 22.6465 22.021C22.6465 21.704 22.3961 21.5048 22.0871 21.5761L15.4749 23.1026Z" fill="#8BFF8E"/>
</g>
<defs>
<filter id="filter0_f_1_201" x="0.3" y="-0.699771" width="38.7623" height="54.1225" filterUnits="userSpaceOnUse" color-interpolation-filters="sRGB">
<feFlood flood-opacity="0" result="BackgroundImageFix"/>
<feBlend mode="normal" in="SourceGraphic" in2="BackgroundImageFix" result="shape"/>
<feGaussianBlur stdDeviation="0.35" result="effect1_foregroundBlur_1_201"/>
</filter>
<linearGradient id="paint0_linear_1_201" x1="19.6811" y1="4.3131" x2="28.973" y2="44.5606" gradientUnits="userSpaceOnUse">
<stop stop-color="white" stop-opacity="0.2"/>
<stop offset="1" stop-color="white"/>
</linearGradient>
</defs>
</svg>