<svg width="58" height="66" viewBox="0 0 58 66" fill="none" xmlns="http://www.w3.org/2000/svg">
<path fill-rule="evenodd" clip-rule="evenodd" d="M34.5875 56.7858C47.6094 54.0683 57.3912 42.5243 57.3912 28.6956C57.3912 12.8475 44.5438 0 28.6956 0C12.8475 0 0 12.8475 0 28.6956C0 42.3541 9.54257 53.7838 22.3244 56.6814L27.7357 63.0943C28.1353 63.5677 28.8647 63.5677 29.2643 63.0943L34.5875 56.7858ZM54 28.5C54 42.5833 42.5833 54 28.5 54C14.4167 54 3 42.5833 3 28.5C3 14.4167 14.4167 3 28.5 3C42.5833 3 54 14.4167 54 28.5Z" fill="url(#paint0_linear_1_200)"/>
<path fill-rule="evenodd" clip-rule="evenodd" d="M40.1783 17.2176C41.3333 17.2176 42.2727 18.1931 42.2727 19.3925V22.2924C42.2727 22.693 41.9603 23.0174 41.5746 23.0174H38.084V19.3925C38.084 18.1931 39.0234 17.2176 40.1783 17.2176ZM31.1027 35.9116V33.1671H18.5364V21.5674C18.5364 19.1687 20.4152 17.2176 22.7252 17.2176H37.4037C36.9608 17.8252 36.6877 18.5733 36.6877 19.3925V36.067C36.6877 37.8282 35.1758 39.2229 33.4261 38.927C32.053 38.695 31.1027 37.3565 31.1027 35.9116ZM29.7064 34.617V36.067C29.7064 38.4653 31.5853 40.4169 33.8952 40.4169H19.2345C16.5354 40.4169 14.3476 38.145 14.3476 35.342C14.3476 34.9415 14.6601 34.617 15.0458 34.617H29.7064ZM21.2214 23.3863C21.2214 22.8267 21.675 22.3731 22.2346 22.3731H32.3914C32.866 22.3731 33.2507 22.7578 33.2507 23.2323C33.2507 23.7069 32.866 24.0916 32.3914 24.0916H21.2214V23.3863ZM22.2346 26.669C21.675 26.669 21.2214 27.1226 21.2214 27.6821V28.3875H32.3914C32.866 28.3875 33.2507 28.0028 33.2507 27.5282C33.2507 27.0537 32.866 26.669 32.3914 26.669H22.2346Z" fill="#8BFF8E"/>
<defs>
<linearGradient id="paint0_linear_1_200" x1="28.6956" y1="0" x2="28.6956" y2="63.4494" gradientUnits="userSpaceOnUse">
<stop stop-color="white" stop-opacity="0.2"/>
<stop offset="1" stop-color="white"/>
</linearGradient>
</defs>
</svg>