<svg width="279" height="222" viewBox="0 0 279 222" fill="none" xmlns="http://www.w3.org/2000/svg">
<g filter="url(#filter0_f_0_1)">
<path fill-rule="evenodd" clip-rule="evenodd" d="M260.423 140.531C268.865 140.82 275.206 134.688 275.206 125.449C275.206 114.86 266.877 104.2 256.603 101.638C246.329 99.0766 238 105.584 238 116.173C238 125.298 244.186 134.477 252.473 138.479L255.981 143.639C256.24 144.019 256.713 144.137 256.972 143.886L260.423 140.531ZM273.008 124.77C273.008 134.18 265.606 139.962 256.476 137.686C247.346 135.409 239.945 125.936 239.945 116.527C239.945 107.117 247.346 101.335 256.476 103.611C265.606 105.887 273.008 115.361 273.008 124.77Z" fill="url(#paint0_linear_0_1)"/>
<path fill-rule="evenodd" clip-rule="evenodd" d="M264.047 114.998C264.796 115.185 265.405 115.988 265.405 116.79V118.727C265.405 118.995 265.202 119.161 264.952 119.099L262.689 118.534V116.113C262.689 115.311 263.298 114.811 264.047 114.998ZM258.164 126.021V124.187L250.017 122.156V114.406C250.017 112.803 251.235 111.803 252.732 112.177L262.248 114.549C261.961 114.884 261.784 115.339 261.784 115.887V127.028C261.784 128.204 260.804 128.892 259.67 128.411C258.78 128.034 258.164 126.986 258.164 126.021ZM257.258 124.93V125.899C257.258 127.502 258.476 129.109 259.974 129.483L250.47 127.113C248.72 126.677 247.301 124.805 247.301 122.932C247.301 122.665 247.504 122.498 247.754 122.561L257.258 124.93ZM251.757 116.055C251.757 115.681 252.052 115.452 252.414 115.542L258.999 117.184C259.307 117.261 259.556 117.58 259.556 117.897C259.556 118.214 259.307 118.409 258.999 118.332L251.757 116.527V116.055ZM252.414 118.412C252.052 118.322 251.757 118.552 251.757 118.925V119.397L258.999 121.202C259.307 121.279 259.556 121.084 259.556 120.767C259.556 120.45 259.307 120.131 258.999 120.054L252.414 118.412Z" fill="#8BFF8E"/>
</g>
<g filter="url(#filter1_f_0_1)">
<path fill-rule="evenodd" clip-rule="evenodd" d="M19.6904 69.7169C25.2212 67.774 29.3758 62.2388 29.3758 56.3077C29.3758 49.5103 23.9191 44.7669 17.1879 45.7129C10.4567 46.6589 5 52.9361 5 59.7335C5 65.5917 9.05304 69.9243 14.4819 70.4041L16.7802 72.8316C16.9499 73.0108 17.2598 72.9673 17.4294 72.7404L19.6904 69.7169ZM27.9354 56.4262C27.9354 62.4666 23.0864 68.0448 17.1048 68.8854C11.1232 69.7261 6.27415 65.5109 6.27415 59.4705C6.27415 53.4301 11.1232 47.852 17.1048 47.0113C23.0864 46.1706 27.9354 50.3859 27.9354 56.4262Z" fill="url(#paint1_linear_0_1)"/>
<path fill-rule="evenodd" clip-rule="evenodd" d="M22.065 52.4122C22.5555 52.3432 22.9545 52.7056 22.9545 53.22V54.4638C22.9545 54.6356 22.8218 54.7934 22.658 54.8164L21.1754 55.0248V53.47C21.1754 52.9556 21.5744 52.4811 22.065 52.4122ZM18.2103 60.9719V59.7947L12.873 60.5448V55.5697C12.873 54.5409 13.671 53.5919 14.6521 53.454L20.8865 52.5778C20.6984 52.8648 20.5824 53.202 20.5824 53.5534V60.7051C20.5824 61.4605 19.9403 62.149 19.1971 62.1265C18.6139 62.109 18.2103 61.5916 18.2103 60.9719ZM17.6172 60.5V61.1219C17.6172 62.1505 18.4152 62.8754 19.3963 62.7375L13.1695 63.6126C12.0231 63.7738 11.0939 62.9299 11.0939 61.7277C11.0939 61.5559 11.2266 61.3981 11.3904 61.3751L17.6172 60.5ZM14.0133 56.1896C14.0133 55.9496 14.206 55.7279 14.4436 55.6945L18.7576 55.0883C18.9591 55.0599 19.1225 55.202 19.1225 55.4055C19.1225 55.609 18.9591 55.797 18.7576 55.8253L14.0133 56.4921V56.1896ZM14.4436 57.5371C14.206 57.5705 14.0133 57.7921 14.0133 58.0321V58.3346L18.7576 57.6678C18.9591 57.6395 19.1225 57.4516 19.1225 57.248C19.1225 57.0445 18.9591 56.9025 18.7576 56.9308L14.4436 57.5371Z" fill="#8BFF8E"/>
</g>
<g filter="url(#filter2_f_0_1)">
<path fill-rule="evenodd" clip-rule="evenodd" d="M261.552 75.3895C266.654 76.4956 270.487 73.2508 270.487 67.3196C270.487 60.5223 265.453 52.7707 259.244 50.006C253.034 47.2413 248 50.5103 248 57.3077C248 63.1659 251.739 69.7328 256.747 73.2054L258.868 76.9C259.024 77.1727 259.31 77.3 259.466 77.1666L261.552 75.3895ZM269.159 66.6441C269.159 72.6845 264.685 75.5895 259.167 73.1327C253.649 70.6759 249.176 63.7875 249.176 57.7471C249.176 51.7068 253.649 48.8017 259.167 51.2586C264.685 53.7154 269.159 60.6038 269.159 66.6441Z" fill="url(#paint2_linear_0_1)"/>
<path fill-rule="evenodd" clip-rule="evenodd" d="M263.743 59.3938C264.195 59.5953 264.563 60.1776 264.563 60.692V61.9358C264.563 62.1076 264.441 62.1923 264.29 62.125L262.922 61.516V59.9613C262.922 59.4469 263.29 59.1923 263.743 59.3938ZM260.187 65.8285V64.6514L255.263 62.4592V57.4841C255.263 56.4552 255.999 55.9461 256.904 56.3491L262.656 58.9098C262.482 59.0932 262.375 59.3664 262.375 59.7177V66.8695C262.375 67.6249 261.783 67.9593 261.097 67.5272C260.559 67.1881 260.187 66.4483 260.187 65.8285ZM259.64 65.0297V65.6516C259.64 66.6803 260.376 67.845 261.281 68.248L255.537 65.6904C254.479 65.2196 253.622 63.8635 253.622 62.6613C253.622 62.4895 253.744 62.4049 253.895 62.4721L259.64 65.0297ZM256.315 58.7326C256.315 58.4926 256.493 58.3772 256.712 58.4748L260.692 60.2467C260.878 60.3295 261.028 60.5616 261.028 60.7651C261.028 60.9687 260.878 61.0665 260.692 60.9838L256.315 59.0351V58.7326ZM256.712 60.3173C256.493 60.2197 256.315 60.3351 256.315 60.5751V60.8776L260.692 62.8262C260.878 62.909 261.028 62.8111 261.028 62.6076C261.028 62.4041 260.878 62.172 260.692 62.0892L256.712 60.3173Z" fill="#8BFF8E"/>
</g>
<g filter="url(#filter3_f_0_1)">
<path fill-rule="evenodd" clip-rule="evenodd" d="M228.329 37.1952C233.724 37.4752 237.777 33.6098 237.777 27.6786C237.777 20.8813 232.454 13.9447 225.888 12.1855C219.323 10.4262 214 14.5103 214 21.3077C214 27.1659 217.953 33.1274 223.249 35.7891L225.491 39.1403C225.656 39.3878 225.958 39.4687 226.124 39.31L228.329 37.1952ZM236.372 27.2183C236.372 33.2586 231.642 36.888 225.807 35.3246C219.973 33.7612 215.243 27.5972 215.243 21.5568C215.243 15.5164 219.973 11.8871 225.807 13.4505C231.642 15.0138 236.372 21.1779 236.372 27.2183Z" fill="url(#paint3_linear_0_1)"/>
<path fill-rule="evenodd" clip-rule="evenodd" d="M230.645 20.8448C231.124 20.973 231.513 21.4957 231.513 22.0102V23.254C231.513 23.4258 231.384 23.5302 231.224 23.4874L229.778 23.0999V21.5452C229.778 21.0308 230.167 20.7166 230.645 20.8448ZM226.885 27.8553V26.6782L221.679 25.2832V20.3081C221.679 19.2792 222.458 18.651 223.415 18.9074L229.496 20.5368C229.312 20.7483 229.199 21.0388 229.199 21.3902V28.542C229.199 29.2974 228.573 29.7277 227.848 29.4066C227.279 29.1546 226.885 28.4751 226.885 27.8553ZM226.307 27.1451V27.767C226.307 28.7956 227.085 29.8412 228.042 30.0976L221.969 28.4702C220.85 28.1705 219.944 26.9533 219.944 25.7511C219.944 25.5793 220.073 25.4748 220.233 25.5176L226.307 27.1451ZM222.792 21.3862C222.792 21.1462 222.98 21.002 223.211 21.0641L227.419 22.1916C227.616 22.2443 227.775 22.452 227.775 22.6555C227.775 22.859 227.616 22.9813 227.419 22.9286L222.792 21.6887V21.3862ZM223.211 22.9066C222.98 22.8445 222.792 22.9887 222.792 23.2287V23.5312L227.419 24.7712C227.616 24.8239 227.775 24.7016 227.775 24.498C227.775 24.2945 227.616 24.0868 227.419 24.0341L223.211 22.9066Z" fill="#8BFF8E"/>
</g>
<g filter="url(#filter4_f_0_1)">
<path fill-rule="evenodd" clip-rule="evenodd" d="M128.093 214.631C136.035 212.973 142 205.933 142 197.5C142 187.835 134.165 180 124.5 180C114.835 180 107 187.835 107 197.5C107 205.83 112.82 212.8 120.615 214.567L123.915 218.478C124.158 218.767 124.603 218.767 124.847 218.478L128.093 214.631ZM139.932 197.381C139.932 205.969 132.969 212.932 124.381 212.932C115.792 212.932 108.83 205.969 108.83 197.381C108.83 188.792 115.792 181.83 124.381 181.83C132.969 181.83 139.932 188.792 139.932 197.381Z" fill="url(#paint4_linear_0_1)"/>
<path fill-rule="evenodd" clip-rule="evenodd" d="M131.503 190.5C132.207 190.5 132.78 191.095 132.78 191.826V193.595C132.78 193.839 132.589 194.037 132.354 194.037H130.225V191.826C130.225 191.095 130.798 190.5 131.503 190.5ZM125.968 201.901V200.227H118.304V193.153C118.304 191.69 119.45 190.5 120.859 190.5H129.811C129.541 190.871 129.374 191.327 129.374 191.826V201.995C129.374 203.069 128.452 203.92 127.385 203.74C126.547 203.598 125.968 202.782 125.968 201.901ZM125.116 201.111V201.995C125.116 203.458 126.262 204.648 127.671 204.648H118.73C117.084 204.648 115.75 203.263 115.75 201.553C115.75 201.309 115.94 201.111 116.176 201.111H125.116ZM119.942 194.262C119.942 193.921 120.218 193.644 120.56 193.644H126.754C127.043 193.644 127.278 193.879 127.278 194.168C127.278 194.458 127.043 194.692 126.754 194.692H119.942V194.262ZM120.56 196.264C120.218 196.264 119.942 196.541 119.942 196.882V197.312H126.754C127.043 197.312 127.278 197.077 127.278 196.788C127.278 196.499 127.043 196.264 126.754 196.264H120.56Z" fill="#8BFF8E"/>
</g>
<g filter="url(#filter5_f_0_1)">
<path fill-rule="evenodd" clip-rule="evenodd" d="M93.4887 177.004C98.076 176.047 101.522 171.98 101.522 167.109C101.522 161.526 96.996 157 91.4131 157C85.8303 157 81.3044 161.526 81.3044 167.109C81.3044 171.92 84.666 175.947 89.1688 176.967L91.075 179.226C91.2158 179.393 91.4727 179.393 91.6135 179.226L93.4887 177.004ZM100.327 167.04C100.327 172.001 96.3054 176.023 91.3442 176.023C86.3831 176.023 82.3613 172.001 82.3613 167.04C82.3613 162.079 86.3831 158.057 91.3442 158.057C96.3054 158.057 100.327 162.079 100.327 167.04Z" fill="url(#paint5_linear_0_1)"/>
<path fill-rule="evenodd" clip-rule="evenodd" d="M95.4582 163.065C95.8651 163.065 96.196 163.409 96.196 163.831V164.853C96.196 164.994 96.0859 165.108 95.9501 165.108H94.7204V163.831C94.7204 163.409 95.0513 163.065 95.4582 163.065ZM92.2611 169.651V168.684H87.8343V164.598C87.8343 163.753 88.4962 163.065 89.3099 163.065H94.4808C94.3248 163.279 94.2285 163.543 94.2285 163.831V169.705C94.2285 170.326 93.6959 170.817 93.0796 170.713C92.5959 170.631 92.2611 170.16 92.2611 169.651ZM91.7692 169.195V169.705C91.7692 170.55 92.4311 171.238 93.2448 171.238H88.0802C87.1294 171.238 86.3587 170.437 86.3587 169.45C86.3587 169.309 86.4688 169.195 86.6047 169.195H91.7692ZM88.7801 165.238C88.7801 165.041 88.9399 164.881 89.137 164.881H92.715C92.8822 164.881 93.0177 165.017 93.0177 165.184C93.0177 165.351 92.8822 165.487 92.715 165.487H88.7801V165.238ZM89.137 166.395C88.9399 166.395 88.7801 166.555 88.7801 166.752V167H92.715C92.8822 167 93.0177 166.865 93.0177 166.697C93.0177 166.53 92.8822 166.395 92.715 166.395H89.137Z" fill="#8BFF8E"/>
</g>
<defs>
<filter id="filter0_f_0_1" x="234.3" y="93.3" width="44.606" height="60.7733" filterUnits="userSpaceOnUse" color-interpolation-filters="sRGB">
<feFlood flood-opacity="0" result="BackgroundImageFix"/>
<feBlend mode="normal" in="SourceGraphic" in2="BackgroundImageFix" result="shape"/>
<feGaussianBlur stdDeviation="1.85" result="effect1_foregroundBlur_0_1"/>
</filter>
<filter id="filter1_f_0_1" x="0" y="39" width="34.3758" height="41.7335" filterUnits="userSpaceOnUse" color-interpolation-filters="sRGB">
<feFlood flood-opacity="0" result="BackgroundImageFix"/>
<feBlend mode="normal" in="SourceGraphic" in2="BackgroundImageFix" result="shape"/>
<feGaussianBlur stdDeviation="2.5" result="effect1_foregroundBlur_0_1"/>
</filter>
<filter id="filter2_f_0_1" x="243" y="40" width="32.4872" height="48.3196" filterUnits="userSpaceOnUse" color-interpolation-filters="sRGB">
<feFlood flood-opacity="0" result="BackgroundImageFix"/>
<feBlend mode="normal" in="SourceGraphic" in2="BackgroundImageFix" result="shape"/>
<feGaussianBlur stdDeviation="2.5" result="effect1_foregroundBlur_0_1"/>
</filter>
<filter id="filter3_f_0_1" x="202.8" y="-2.2" width="46.1766" height="57.0786" filterUnits="userSpaceOnUse" color-interpolation-filters="sRGB">
<feFlood flood-opacity="0" result="BackgroundImageFix"/>
<feBlend mode="normal" in="SourceGraphic" in2="BackgroundImageFix" result="shape"/>
<feGaussianBlur stdDeviation="5.6" result="effect1_foregroundBlur_0_1"/>
</filter>
<filter id="filter4_f_0_1" x="104.561" y="177.561" width="39.8788" height="45.1288" filterUnits="userSpaceOnUse" color-interpolation-filters="sRGB">
<feFlood flood-opacity="0" result="BackgroundImageFix"/>
<feBlend mode="normal" in="SourceGraphic" in2="BackgroundImageFix" result="shape"/>
<feGaussianBlur stdDeviation="1.2197" result="effect1_foregroundBlur_0_1"/>
</filter>
<filter id="filter5_f_0_1" x="79.8954" y="155.591" width="23.0356" height="26.0682" filterUnits="userSpaceOnUse" color-interpolation-filters="sRGB">
<feFlood flood-opacity="0" result="BackgroundImageFix"/>
<feBlend mode="normal" in="SourceGraphic" in2="BackgroundImageFix" result="shape"/>
<feGaussianBlur stdDeviation="0.704547" result="effect1_foregroundBlur_0_1"/>
</filter>
<linearGradient id="paint0_linear_0_1" x1="256.603" y1="101.638" x2="246.652" y2="141.55" gradientUnits="userSpaceOnUse">
<stop stop-color="white" stop-opacity="0.2"/>
<stop offset="1" stop-color="white"/>
</linearGradient>
<linearGradient id="paint1_linear_0_1" x1="17.1879" y1="45.7129" x2="20.9385" y2="72.3995" gradientUnits="userSpaceOnUse">
<stop stop-color="white" stop-opacity="0.2"/>
<stop offset="1" stop-color="white"/>
</linearGradient>
<linearGradient id="paint2_linear_0_1" x1="259.244" y1="50.006" x2="249.132" y2="72.7176" gradientUnits="userSpaceOnUse">
<stop stop-color="white" stop-opacity="0.2"/>
<stop offset="1" stop-color="white"/>
</linearGradient>
<linearGradient id="paint3_linear_0_1" x1="225.888" y1="12.1855" x2="219.085" y2="37.5762" gradientUnits="userSpaceOnUse">
<stop stop-color="white" stop-opacity="0.2"/>
<stop offset="1" stop-color="white"/>
</linearGradient>
<linearGradient id="paint4_linear_0_1" x1="124.5" y1="180" x2="124.5" y2="218.695" gradientUnits="userSpaceOnUse">
<stop stop-color="white" stop-opacity="0.2"/>
<stop offset="1" stop-color="white"/>
</linearGradient>
<linearGradient id="paint5_linear_0_1" x1="91.4131" y1="157" x2="91.4131" y2="179.352" gradientUnits="userSpaceOnUse">
<stop stop-color="white" stop-opacity="0.2"/>
<stop offset="1" stop-color="white"/>
</linearGradient>
</defs>
</svg>