<svg width="1420" height="792" viewBox="0 0 1420 792" fill="none" xmlns="http://www.w3.org/2000/svg">
<ellipse opacity="0.8" cx="710" cy="396" rx="710" ry="396" fill="url(#paint0_radial_0_1)"/>
<g clip-path="url(#clip0_0_1)">
<path d="M430.424 444.653C411.589 444.653 395.109 441.081 380.983 433.937C366.857 426.793 355.979 416.564 348.347 403.25C340.716 389.936 336.901 374.186 336.901 356.001C336.901 337.816 340.716 322.067 348.347 308.753C355.979 295.276 366.857 284.966 380.983 277.822C395.109 270.678 411.589 267.106 430.424 267.106C455.753 267.106 475.561 271.814 489.85 281.232V327.75C482.705 322.392 474.668 318.495 465.738 316.059C456.808 313.624 446.498 312.406 434.807 312.406C419.545 312.406 407.936 316.222 399.98 323.853C392.186 331.484 388.289 342.2 388.289 356.001C388.289 370.452 392.024 381.412 399.493 388.88C407.124 396.187 418.084 399.84 432.372 399.84C439.354 399.84 445.036 398.866 449.42 396.918V375.242H426.04V343.337H495.451V428.579C478.24 439.295 456.564 444.653 430.424 444.653ZM510.163 270.759H633.643V313.137H560.578V336.517H613.184V375.242H560.578V398.622H633.643V441H510.163V270.759ZM645.732 270.759H694.686L747.78 359.898V270.759H798.194V441H749.484L696.147 351.861V441H645.732V270.759ZM812.821 407.877L883.937 313.137H814.525V270.759H946.286V304.125L875.413 398.622H951.887V441H812.821V407.877ZM1023.72 270.759H1072.19L1140.14 441H1088.5L1075.84 408.608H1020.07L1007.16 441H955.525L1023.72 270.759ZM1064.15 370.371L1047.83 322.635L1031.51 370.371H1064.15Z" fill="#8BFF8E"/>
<path d="M430.424 460.653C411.589 460.653 395.109 457.081 380.983 449.937C366.857 442.793 355.979 432.564 348.347 419.25C340.716 405.936 336.901 390.186 336.901 372.001C336.901 353.816 340.716 338.067 348.347 324.753C355.979 311.276 366.857 300.966 380.983 293.822C395.109 286.678 411.589 283.106 430.424 283.106C455.753 283.106 475.561 287.814 489.85 297.232V343.75C482.705 338.392 474.668 334.495 465.738 332.059C456.808 329.624 446.498 328.406 434.807 328.406C419.545 328.406 407.936 332.222 399.98 339.853C392.186 347.484 388.289 358.2 388.289 372.001C388.289 386.452 392.024 397.412 399.493 404.88C407.124 412.187 418.084 415.84 432.372 415.84C439.354 415.84 445.036 414.866 449.42 412.918V391.242H426.04V359.337H495.451V444.579C478.24 455.295 456.564 460.653 430.424 460.653ZM510.163 286.759H633.643V329.137H560.578V352.517H613.184V391.242H560.578V414.622H633.643V457H510.163V286.759ZM645.732 286.759H694.686L747.78 375.898V286.759H798.194V457H749.484L696.147 367.861V457H645.732V286.759ZM812.821 423.877L883.937 329.137H814.525V286.759H946.286V320.125L875.413 414.622H951.887V457H812.821V423.877ZM1023.72 286.759H1072.19L1140.14 457H1088.5L1075.84 424.608H1020.07L1007.16 457H955.525L1023.72 286.759ZM1064.15 386.371L1047.83 338.635L1031.51 386.371H1064.15Z" fill="#9F4AF7"/>
<g opacity="0.2">
<path d="M427.555 449.145C408.981 449.145 392.563 445.497 378.3 438.2C364.038 430.737 353.009 420.206 345.215 406.607C337.42 393.008 333.523 377.004 333.523 358.596C333.523 340.188 337.42 324.184 345.215 310.585C353.009 296.82 364.038 286.289 378.3 278.992C392.563 271.529 408.981 267.798 427.555 267.798C440.159 267.798 451.27 269.124 460.889 271.778C470.674 274.265 479.629 278.246 487.756 283.718V319.789C480.459 313.819 472.084 309.507 462.631 306.853C453.343 304.034 442.73 302.624 430.789 302.624C419.678 302.624 409.644 304.946 400.689 309.59C391.899 314.067 384.934 320.535 379.793 328.993C374.652 337.451 372.081 347.319 372.081 358.596C372.081 370.039 374.403 380.072 379.046 388.696C383.856 397.154 390.572 403.705 399.196 408.348C407.82 412.992 417.77 415.314 429.048 415.314C439.33 415.314 448.285 413.49 455.914 409.841V376.258H427.804V348.397H492.482V432.23C476.064 443.507 454.421 449.145 427.555 449.145ZM513.652 271.529H634.302V303.122H551.464V343.421H612.411V373.77H551.464V413.821H634.302V445.414H513.652V271.529ZM652.609 271.529H689.426L762.065 383.97V271.529H799.877V445.414H763.309L690.421 332.973V445.414H652.609V271.529ZM820.845 420.289L905.921 303.122H823.084V271.529H952.689V296.903L868.11 413.821H957.664V445.414H820.845V420.289ZM1037.23 271.529H1074.29L1143.7 445.414H1105.14L1090.22 407.602H1021.31L1006.38 445.414H967.576L1037.23 271.529ZM1080.27 377.502L1055.64 311.331L1031.01 377.502H1080.27Z" fill="#8BFF8E"/>
</g>
<path d="M430.424 452.653C411.589 452.653 395.109 449.081 380.983 441.937C366.857 434.793 355.979 424.564 348.347 411.25C340.716 397.936 336.901 382.186 336.901 364.001C336.901 345.816 340.716 330.067 348.347 316.753C355.979 303.276 366.857 292.966 380.983 285.822C395.109 278.678 411.589 275.106 430.424 275.106C455.753 275.106 475.561 279.814 489.85 289.232V335.75C482.705 330.392 474.668 326.495 465.738 324.059C456.808 321.624 446.498 320.406 434.807 320.406C419.545 320.406 407.936 324.222 399.98 331.853C392.186 339.484 388.289 350.2 388.289 364.001C388.289 378.452 392.024 389.412 399.493 396.88C407.124 404.187 418.084 407.84 432.372 407.84C439.354 407.84 445.036 406.866 449.42 404.918V383.242H426.04V351.337H495.451V436.579C478.24 447.295 456.564 452.653 430.424 452.653ZM510.163 278.759H633.643V321.137H560.578V344.517H613.184V383.242H560.578V406.622H633.643V449H510.163V278.759ZM645.732 278.759H694.686L747.78 367.898V278.759H798.194V449H749.484L696.147 359.861V449H645.732V278.759ZM812.821 415.877L883.937 321.137H814.525V278.759H946.286V312.125L875.413 406.622H951.887V449H812.821V415.877ZM1023.72 278.759H1072.19L1140.14 449H1088.5L1075.84 416.608H1020.07L1007.16 449H955.525L1023.72 278.759ZM1064.15 378.371L1047.83 330.635L1031.51 378.371H1064.15Z" fill="white"/>
</g>
<defs>
<radialGradient id="paint0_radial_0_1" cx="0" cy="0" r="1" gradientUnits="userSpaceOnUse" gradientTransform="translate(710 396) rotate(89.2247) scale(241.791 524.804)">
<stop stop-color="#AF62FF"/>
<stop offset="1" stop-color="#0F0F0F" stop-opacity="0"/>
</radialGradient>
<clipPath id="clip0_0_1">
<rect width="822.955" height="273.2" fill="white" transform="translate(328 212)"/>
</clipPath>
</defs>
</svg>
