<svg width="375" height="209" viewBox="0 0 375 209" fill="none" xmlns="http://www.w3.org/2000/svg">
<ellipse opacity="0.8" cx="187.5" cy="104.5" rx="187.5" ry="104.5" fill="url(#paint0_radial_1895_111889)"/>
<g clip-path="url(#clip0_1895_111889)">
<path d="M103.043 107.085C97.9416 107.085 93.4441 106.1 89.5506 104.131C85.702 102.162 82.726 99.3425 80.6227 95.6729C78.5193 91.9585 77.4677 87.6175 77.4677 82.6501C77.4677 77.6827 78.5193 73.3641 80.6227 69.6945C82.726 65.9801 85.702 63.1383 89.5506 61.1693C93.4441 59.1554 97.9416 58.1485 103.043 58.1485C106.444 58.1485 109.443 58.4842 112.038 59.1554C114.679 59.782 117.118 60.8113 119.355 62.2433V73.5207C117.386 71.9544 115.149 70.8356 112.643 70.1644C110.181 69.4483 107.339 69.0903 104.117 69.0903C101.343 69.0903 98.859 69.6497 96.6662 70.7685C94.5181 71.8426 92.8175 73.4089 91.5645 75.4674C90.3114 77.526 89.6849 79.9202 89.6849 82.6501C89.6849 86.9015 90.9156 90.2579 93.3769 92.7192C95.883 95.1806 99.2618 96.4113 103.513 96.4113C105.885 96.4113 107.876 96.0085 109.488 95.203V87.6847H102.305V79.3608H120.765V102.721C115.977 105.63 110.069 107.085 103.043 107.085ZM125.485 59.1554H158.78V69.1575H137.366V77.9512H153.007V87.2819H137.366V96.0756H158.78V106.078H125.485V59.1554ZM163.506 59.1554H175.254L192.506 87.0805V59.1554H204.387V106.078H192.707L175.388 78.0854V106.078H163.506V59.1554ZM209.101 98.0223L230.447 69.1575H209.638V59.1554H245.282V67.2779L224.07 96.0756H246.759V106.078H209.101V98.0223ZM267.229 59.1554H278.909L297.638 106.078H285.488L281.729 96.4113H264.41L260.651 106.078H248.433L267.229 59.1554ZM278.775 87.2819L273.069 71.5069L267.296 87.2819H278.775Z" fill="#8BFF8E"/>
<path d="M103.043 111.495C97.9416 111.495 93.4441 110.51 89.5506 108.541C85.702 106.572 82.726 103.753 80.6227 100.083C78.5193 96.3686 77.4677 92.0277 77.4677 87.0603C77.4677 82.0928 78.5193 77.7743 80.6227 74.1046C82.726 70.3902 85.702 67.5485 89.5506 65.5794C93.4441 63.5656 97.9416 62.5587 103.043 62.5587C106.444 62.5587 109.443 62.8943 112.038 63.5656C114.679 64.1921 117.118 65.2214 119.355 66.6535V77.9309C117.386 76.3646 115.149 75.2458 112.643 74.5745C110.181 73.8585 107.339 73.5005 104.117 73.5005C101.343 73.5005 98.859 74.0599 96.6662 75.1787C94.5181 76.2527 92.8175 77.819 91.5645 79.8776C90.3114 81.9362 89.6849 84.3304 89.6849 87.0603C89.6849 91.3117 90.9156 94.6681 93.3769 97.1294C95.883 99.5907 99.2618 100.821 103.513 100.821C105.885 100.821 107.876 100.419 109.488 99.6131V92.0948H102.305V83.771H120.765V107.131C115.977 110.04 110.069 111.495 103.043 111.495ZM125.485 63.5656H158.78V73.5676H137.366V82.3613H153.007V91.6921H137.366V100.486H158.78V110.488H125.485V63.5656ZM163.506 63.5656H175.254L192.506 91.4907V63.5656H204.387V110.488H192.707L175.388 82.4956V110.488H163.506V63.5656ZM209.101 102.432L230.447 73.5676H209.638V63.5656H245.282V71.688L224.07 100.486H246.759V110.488H209.101V102.432ZM267.229 63.5656H278.909L297.638 110.488H285.488L281.729 100.821H264.41L260.651 110.488H248.433L267.229 63.5656ZM278.775 91.6921L273.069 75.9171L267.296 91.6921H278.775Z" fill="#9F4AF7"/>
<path d="M103.043 109.29C97.9416 109.29 93.4441 108.305 89.5506 106.336C85.702 104.367 82.726 101.548 80.6227 97.8779C78.5193 94.1635 77.4677 89.8226 77.4677 84.8552C77.4677 79.8877 78.5193 75.5692 80.6227 71.8996C82.726 68.1852 85.702 65.3434 89.5506 63.3743C93.4441 61.3605 97.9416 60.3536 103.043 60.3536C106.444 60.3536 109.443 60.6892 112.038 61.3605C114.679 61.987 117.118 63.0163 119.355 64.4484V75.7258C117.386 74.1595 115.149 73.0407 112.643 72.3694C110.181 71.6534 107.339 71.2954 104.117 71.2954C101.343 71.2954 98.859 71.8548 96.6662 72.9736C94.5181 74.0476 92.8175 75.6139 91.5645 77.6725C90.3114 79.7311 89.6849 82.1253 89.6849 84.8552C89.6849 89.1066 90.9156 92.463 93.3769 94.9243C95.883 97.3857 99.2618 98.6163 103.513 98.6163C105.885 98.6163 107.876 98.2136 109.488 97.408V89.8898H102.305V81.5659H120.765V104.926C115.977 107.835 110.069 109.29 103.043 109.29ZM125.485 61.3605H158.78V71.3625H137.366V80.1562H153.007V89.487H137.366V98.2807H158.78V108.283H125.485V61.3605ZM163.506 61.3605H175.254L192.506 89.2856V61.3605H204.387V108.283H192.707L175.388 80.2905V108.283H163.506V61.3605ZM209.101 100.227L230.447 71.3625H209.638V61.3605H245.282V69.483L224.07 98.2807H246.759V108.283H209.101V100.227ZM267.229 61.3605H278.909L297.638 108.283H285.488L281.729 98.6163H264.41L260.651 108.283H248.433L267.229 61.3605ZM278.775 89.487L273.069 73.712L267.296 89.487H278.775Z" fill="white"/>
</g>
<defs>
<radialGradient id="paint0_radial_1895_111889" cx="0" cy="0" r="1" gradientUnits="userSpaceOnUse" gradientTransform="translate(187.5 104.5) rotate(89.2241) scale(63.8058 138.592)">
<stop stop-color="#AF62FF"/>
<stop offset="1" stop-color="#0F0F0F" stop-opacity="0"/>
</radialGradient>
<clipPath id="clip0_1895_111889">
<rect width="226.825" height="75.3" fill="white" transform="translate(74.457 43)"/>
</clipPath>
</defs>
</svg>
